HIERARCHY
ROOT Hips
{
	OFFSET 0.000000 0.000000 0.000000
	CHANNELS 6 Xposition Yposition Zposition Yrotation Xrotation Zrotation
	JOINT Chest
	{
		OFFSET 0.000000 -0.009281 11.569106
		CHANNELS 3 Yrotation Xrotation Zrotation
		JOINT Chest2
		{
			OFFSET -0.000000 0.016865 9.269641
			CHANNELS 3 Yrotation Xrotation Zrotation
			JOINT Chest3
			{
				OFFSET -0.000000 0.000001 8.374491
				CHANNELS 3 Yrotation Xrotation Zrotation
				JOINT Chest4
				{
					OFFSET -0.000000 0.000001 8.374493
					CHANNELS 3 Yrotation Xrotation Zrotation
					JOINT Neck
					{
						OFFSET -0.000000 0.000002 12.152554
						CHANNELS 3 Yrotation Xrotation Zrotation
						JOINT Head
						{
							OFFSET -0.000000 0.040101 7.802319
							CHANNELS 3 Yrotation Xrotation Zrotation
							End Site
							{
								OFFSET -0.000000 0.020947 14.853096
							}
						}
					}
					JOINT RightCollar
					{
						OFFSET 2.894404 0.000001 6.791374
						CHANNELS 3 Yrotation Xrotation Zrotation
						JOINT RightShoulder
						{
							OFFSET 13.574684 0.000001 0.000000
							CHANNELS 3 Yrotation Xrotation Zrotation
							JOINT RightElbow
							{
								OFFSET 23.923903 0.000002 0.000000
								CHANNELS 3 Yrotation Xrotation Zrotation
								JOINT RightWrist
								{
									OFFSET 19.846718 0.012767 0.000000
									CHANNELS 3 Yrotation Xrotation Zrotation
									End Site
									{
										OFFSET 14.973145 0.000001 0.000000
									}
								}
							}
						}
					}
					JOINT LeftCollar
					{
						OFFSET -2.894404 0.000001 6.791374
						CHANNELS 3 Yrotation Xrotation Zrotation
						JOINT LeftShoulder
						{
							OFFSET -13.574684 -0.000001 0.000000
							CHANNELS 3 Yrotation Xrotation Zrotation
							JOINT LeftElbow
							{
								OFFSET -23.923903 -0.000002 0.000000
								CHANNELS 3 Yrotation Xrotation Zrotation
								JOINT LeftWrist
								{
									OFFSET -19.846718 0.012763 0.000000
									CHANNELS 3 Yrotation Xrotation Zrotation
									End Site
									{
										OFFSET -14.973145 -0.000001 0.000000
									}
								}
							}
						}
					}
				}
			}
		}
	}
	JOINT RightHip
	{
		OFFSET 9.469263 0.004643 0.045487
		CHANNELS 3 Yrotation Xrotation Zrotation
		JOINT RightKnee
		{
			OFFSET 0.000000 0.002661 -40.478676
			CHANNELS 3 Yrotation Xrotation Zrotation
			JOINT RightAnkle
			{
				OFFSET 0.000000 0.049106 -35.224068
				CHANNELS 3 Yrotation Xrotation Zrotation
				JOINT RightToe
				{
					OFFSET -0.000001 12.539529 -6.151390
					CHANNELS 3 Yrotation Xrotation Zrotation
					End Site
					{
						OFFSET -0.000001 5.044994 -1.291870
					}
				}
			}
		}
	}
	JOINT LeftHip
	{
		OFFSET -9.469263 0.004641 0.045487
		CHANNELS 3 Yrotation Xrotation Zrotation
		JOINT LeftKnee
		{
			OFFSET 0.000000 0.002661 -40.478676
			CHANNELS 3 Yrotation Xrotation Zrotation
			JOINT LeftAnkle
			{
				OFFSET 0.000000 0.049106 -35.224068
				CHANNELS 3 Yrotation Xrotation Zrotation
				JOINT LeftToe
				{
					OFFSET -0.000001 12.539529 -6.151390
					CHANNELS 3 Yrotation Xrotation Zrotation
					End Site
					{
						OFFSET -0.000001 5.044994 -1.291870
					}
				}
			}
		}
	}
}
MOTION
Frames: 14
Frame Time: 0.016667
10.624002 4.475905 82.869095 -7.414295 -3.871107 -117.399436 0.612284 -6.760715 -2.045321 0.241130 -3.005998 -0.933032 0.241130 -3.005998 -0.933033 0.176214 -2.254872 -0.698428 -1.842067 -25.228642 0.307192 -3.222316 -10.676845 0.110828 -1.169775 -2.548331 2.068760 57.209241 -29.493167 44.547399 -6.593699 -28.967935 0.948533 -45.876987 18.037187 48.684260 -11.576279 -4.144727 -7.939017 -54.443988 -20.937265 -43.147715 5.513445 -26.804821 -1.876090 52.709755 0.802080 -85.954420 -1.108595 -7.077772 2.290757 0.967721 -9.253265 -1.240005 0.606666 8.026545 4.377736 0.085889 0.063845 0.000885 -0.806876 -10.640295 2.218574 0.271525 -4.356241 6.598127 0.355147 6.726632 -1.139869 0.099205 0.009894 -0.002285 
10.692179 4.429626 82.871063 -7.422466 -3.834969 -117.114098 0.631956 -6.716013 -1.982629 0.252000 -2.986214 -0.904645 0.252000 -2.986214 -0.904656 0.184534 -2.240039 -0.677104 -1.801967 -25.254155 0.589890 -3.083151 -10.717561 0.626527 -1.146765 -2.559493 2.053376 57.769535 -29.797728 44.357065 -6.131736 -27.568230 1.049999 -46.146957 18.278524 48.113529 -11.593868 -4.078295 -7.870823 -54.334865 -20.860439 -42.566268 5.848261 -26.489830 -1.251675 52.860364 0.383792 -85.650395 -1.100471 -7.255884 2.163061 0.984372 -9.064545 -1.359075 0.584651 8.006138 4.335738 0.075444 0.065792 0.000636 -0.804808 -10.720913 2.116617 0.324540 -4.226206 6.439388 0.312912 6.666330 -1.139933 0.092977 0.009684 -0.001556 
10.759837 4.384935 82.872932 -7.430029 -3.804181 -116.843459 0.642257 -6.691034 -1.901687 0.259511 -2.975097 -0.868572 0.259511 -2.975097 -0.868570 0.190359 -2.231698 -0.650018 -1.756806 -25.259172 0.860997 -2.937822 -10.721560 1.122266 -1.074311 -2.537404 2.070610 58.330055 -30.106644 44.139619 -5.607694 -25.926314 1.160590 -46.439990 18.525758 47.504375 -11.575509 -3.987047 -7.821040 -54.374426 -20.607162 -41.931395 6.173198 -26.409034 -0.756569 52.994495 -0.061555 -85.398367 -1.093611 -7.430372 2.040450 1.004028 -8.882125 -1.474403 0.571163 7.986668 4.320283 0.061669 0.067425 0.000854 -0.804777 -10.798633 2.058374 0.390322 -4.107230 6.264512 0.269005 6.614409 -1.160941 0.082490 0.007565 -0.001977 
10.827233 4.341069 82.874001 -7.436567 -3.775581 -116.591138 0.643601 -6.672962 -1.809588 0.262938 -2.966784 -0.827090 0.262938 -2.966784 -0.827087 0.193141 -2.225450 -0.618900 -1.714039 -25.255990 1.137123 -2.795560 -10.711374 1.626260 -0.940012 -2.478390 2.139061 58.963138 -30.385135 43.848797 -4.989316 -24.009452 1.262306 -46.735207 18.774433 46.754188 -11.530184 -3.895248 -7.768388 -54.449421 -20.288013 -41.284173 6.467355 -26.419522 -0.378901 53.156589 -0.365272 -85.212293 -1.085982 -7.600477 1.921065 1.025745 -8.702659 -1.585953 0.560813 7.970003 4.296810 0.046161 0.065163 -0.000034 -0.800129 -10.875855 2.021765 0.443411 -3.993855 6.093321 0.233589 6.570592 -1.195035 0.072028 0.003911 -0.001455 
10.891959 4.294553 82.873924 -7.436614 -3.746297 -116.353420 0.642706 -6.647279 -1.713894 0.264818 -2.954713 -0.784585 0.264818 -2.954713 -0.784588 0.194773 -2.216380 -0.587031 -1.674576 -25.258685 1.424329 -2.656606 -10.713108 2.149428 -0.774902 -2.396069 2.252050 59.733522 -30.631664 43.474745 -4.249049 -21.746486 1.352320 -47.041067 19.003133 45.813501 -11.495128 -3.820537 -7.739632 -54.344694 -20.038107 -40.648334 6.677911 -26.274737 -0.089497 53.352148 -0.672536 -84.899490 -1.077605 -7.761001 1.802367 1.045120 -8.526310 -1.692357 0.552729 7.955726 4.300968 0.033470 0.060816 -0.001445 -0.785012 -10.950178 1.986226 0.480234 -3.877109 5.936114 0.199964 6.529481 -1.225976 0.065820 -0.001952 0.000909 
10.956111 4.246292 82.873222 -7.435824 -3.719656 -116.128830 0.649076 -6.609040 -1.626449 0.269466 -2.936826 -0.745057 0.269466 -2.936827 -0.745061 0.198473 -2.202952 -0.557374 -1.642225 -25.273155 1.723982 -2.527608 -10.737764 2.693291 -0.673740 -2.343588 2.320341 60.582842 -30.901531 43.131893 -3.326272 -19.200662 1.558092 -47.367946 19.194674 44.606360 -11.485054 -3.740831 -7.707792 -54.139361 -19.873719 -40.012160 6.879480 -26.068214 0.212552 53.525443 -1.109358 -84.397499 -1.058230 -7.918540 1.683467 1.058560 -8.351627 -1.791013 0.539276 7.941967 4.268013 0.023845 0.054976 -0.003883 -0.762066 -11.026201 1.915629 0.504301 -3.761774 5.816995 0.165260 6.493577 -1.250940 0.064194 -0.009605 0.004230 
11.015776 4.193794 82.872520 -7.434403 -3.695781 -115.914280 0.658292 -6.572173 -1.529972 0.274861 -2.920293 -0.701224 0.274862 -2.920293 -0.701224 0.202749 -2.190539 -0.524490 -1.603785 -25.285282 2.016762 -2.389461 -10.759375 3.226266 -0.573355 -2.313256 2.377605 61.375732 -31.102151 42.812018 -2.256267 -16.721587 1.994035 -47.743972 19.342809 43.181238 -11.474100 -3.661249 -7.699110 -53.916024 -19.684771 -39.377362 7.090364 -25.964754 0.510021 53.779974 -1.749207 -83.868200 -1.037251 -8.074579 1.567748 1.067380 -8.179218 -1.887643 0.529880 7.928625 4.283858 0.016781 0.049778 -0.002909 -0.733230 -11.097779 1.799831 0.526008 -3.655738 5.737536 0.124042 6.460110 -1.267711 0.064543 -0.015555 0.005608 
11.071603 4.141892 82.871613 -7.433314 -3.674811 -115.711792 0.667069 -6.548294 -1.438481 0.278445 -2.910848 -0.658301 0.278445 -2.910848 -0.658304 0.205652 -2.183440 -0.492294 -1.571496 -25.282968 2.310191 -2.261979 -10.755285 3.758778 -0.478787 -2.214305 2.436395 62.118317 -31.306534 42.493650 -1.028444 -14.239546 2.613669 -48.039627 19.513698 41.762348 -11.453817 -3.519551 -7.680522 -53.785660 -19.406207 -38.723467 7.293794 -26.055059 0.800717 53.994544 -2.502577 -83.318971 -1.009273 -8.214869 1.449886 1.075424 -8.023120 -1.980176 0.517647 7.910910 4.299403 0.009001 0.048960 -0.004330 -0.699415 -11.168076 1.657546 0.540903 -3.558418 5.678896 0.084629 6.421577 -1.279864 0.064830 -0.009518 0.007795 
11.124234 4.095134 82.869972 -7.431710 -3.655425 -115.531393 0.672651 -6.523908 -1.332142 0.283450 -2.900188 -0.610309 0.283450 -2.900189 -0.610305 0.209643 -2.175427 -0.456286 -1.546895 -25.278281 2.595081 -2.150238 -10.747737 4.274202 -0.370871 -2.113600 2.502794 62.777245 -31.551045 42.227139 0.328804 -11.543995 3.300990 -48.322376 19.823219 40.453930 -11.411311 -3.406619 -7.651600 -53.701304 -18.994696 -38.093922 7.418641 -26.291925 0.990458 54.267704 -3.228828 -82.766907 -0.992892 -8.341281 1.350021 1.094915 -7.891931 -2.072217 0.506408 7.908957 4.308027 0.001785 0.044702 -0.006387 -0.675192 -11.221267 1.534401 0.561419 -3.490311 5.637213 0.047252 6.409433 -1.287604 0.062453 -0.015906 0.008610 
11.174044 4.051401 82.867798 -7.425105 -3.640714 -115.374230 0.679889 -6.509790 -1.214192 0.289097 -2.893516 -0.557373 0.289097 -2.893516 -0.557372 0.214137 -2.170403 -0.416570 -1.531759 -25.264021 2.875705 -2.056176 -10.723173 4.779717 -0.208517 -1.960292 2.648181 63.369778 -31.891232 41.937843 1.795294 -8.513571 4.099164 -48.684858 20.238183 39.040132 -11.348410 -3.250088 -7.600407 -53.587062 -18.610802 -37.462191 7.434680 -26.468788 1.074486 54.588508 -3.949743 -82.171561 -0.966061 -8.453714 1.284109 1.107569 -7.769685 -2.164380 0.494659 7.905565 4.281902 -0.003665 0.040707 -0.007757 -0.648117 -11.262442 1.457758 0.581582 -3.442268 5.595653 0.008042 6.411316 -1.320206 0.059968 -0.023597 0.009147 
11.220225 4.007142 82.866005 -7.422431 -3.631355 -115.236643 0.684532 -6.498101 -1.075191 0.293375 -2.887861 -0.495568 0.293375 -2.887861 -0.495570 0.217641 -2.166136 -0.370211 -1.509013 -25.251080 3.142801 -1.951719 -10.702083 5.262905 -0.059464 -1.816000 2.751074 63.987678 -32.238571 41.679679 3.469909 -5.341375 5.113757 -49.114398 20.735343 37.237635 -11.273389 -3.059882 -7.573233 -53.324970 -18.376822 -36.819760 7.412660 -26.528571 1.092208 54.835040 -4.704824 -81.422098 -0.939553 -8.562385 1.212971 1.116465 -7.658614 -2.230451 0.483284 7.903171 4.261346 -0.007418 0.037954 -0.008398 -0.616891 -11.306656 1.433976 0.597745 -3.399582 5.517790 -0.029039 6.415470 -1.360282 0.057420 -0.029144 0.010085 
11.265127 3.963036 82.864716 -7.434844 -3.628203 -115.113344 0.708657 -6.465271 -0.945849 0.305962 -2.873109 -0.437190 0.305962 -2.873109 -0.437187 0.227366 -2.155053 -0.326382 -1.499747 -25.263019 3.406436 -1.873044 -10.727592 5.736794 -0.007823 -1.730236 2.798426 64.598256 -32.512001 41.475449 5.544414 -2.252175 6.403477 -49.535107 21.338245 35.139995 -11.237720 -2.909467 -7.523564 -52.912987 -18.251988 -36.187592 7.377123 -26.508439 1.100663 54.971114 -5.594631 -80.537445 -0.919954 -8.681257 1.126883 1.125283 -7.555711 -2.274416 0.471975 7.902146 4.301216 -0.009543 0.036144 -0.009779 -0.587407 -11.360435 1.407656 0.608688 -3.373174 5.432618 -0.063540 6.426382 -1.362752 0.056863 -0.030937 0.011482 
11.312651 3.921881 82.863297 -7.465820 -3.628564 -114.995975 0.754160 -6.420023 -0.823246 0.327060 -2.852660 -0.380670 0.327060 -2.852660 -0.380669 0.243466 -2.139700 -0.283917 -1.498553 -25.296767 3.657841 -1.812684 -10.793824 6.186882 -0.012388 -1.738837 2.892033 65.094312 -32.626267 41.365497 7.903985 0.541771 7.869509 -49.878700 22.053974 32.990746 -11.245672 -2.822737 -7.475322 -52.510768 -18.072240 -35.582946 7.412862 -26.575161 1.150758 55.064907 -6.639495 -79.678938 -0.900673 -8.820506 1.031613 1.123850 -7.447224 -2.289133 0.461102 7.898674 4.295728 -0.010695 0.033298 -0.010896 -0.563705 -11.424860 1.362604 0.614991 -3.364664 5.367383 -0.094836 6.446143 -1.372008 0.056190 -0.030362 0.011652 
11.359487 3.881819 82.860901 -7.502906 -3.628954 -114.874766 0.805355 -6.379830 -0.701062 0.350013 -2.834474 -0.324288 0.350013 -2.834474 -0.324287 0.260951 -2.126042 -0.241540 -1.490322 -25.324204 3.888974 -1.744537 -10.848920 6.602312 -0.018774 -1.713210 2.984027 65.416389 -32.823201 41.356293 10.380989 3.143338 9.461962 -50.081375 22.685579 30.940958 -11.278133 -2.751307 -7.455627 -52.176211 -17.687861 -34.997544 7.375295 -26.735725 1.221621 54.994767 -7.545599 -78.768549 -0.882544 -8.965400 0.936434 1.119283 -7.339048 -2.302361 0.449216 7.896830 4.277943 -0.008586 0.029627 -0.009750 -0.541337 -11.485444 1.283367 0.616222 -3.375026 5.349267 -0.124000 6.477411 -1.403643 0.054266 -0.030986 0.011193 
